<svg xmlns="http://www.w3.org/2000/svg" viewBox="0 0 141.74 203.47"><defs><style>.cls-1,.cls-3,.cls-6{fill:#fff;}.cls-1,.cls-2,.cls-3,.cls-4{stroke:#90867d;}.cls-2,.cls-4{fill:none;}.cls-2,.cls-3,.cls-4{stroke-miterlimit:10;}.cls-4{stroke-linecap:round;}.cls-5{fill:#90867d;}</style></defs><title>Asset 18</title><g id="Layer_2" data-name="Layer 2"><g id="Layer_5" data-name="Layer 5"><path class="cls-1" d="M115.21,55.86s-2.92-6.3-7.88-6.89c-6.54-.78-4.54-6.31-.83-6.49a10.42,10.42,0,0,1,5.74,1.38.36.36,0,0,0,.52-.32c0-2.19-.22-10.11-2.32-14-2.9-5.4,3.21-7,5.86-2.68a23.65,23.65,0,0,1,3,7.47.4.4,0,0,0,.7.16,30.07,30.07,0,0,0,4.54-8.9c1.83-6.15,7.66-2.07,7.56,1.67-.08,3-3.17,8.07-4.69,10.78a.58.58,0,0,0,.61.85c2.26-.41,5.41-.47,7.94-2.1,3.92-2.52,7.25,3,4,5.57A20.47,20.47,0,0,1,132,46.14a.65.65,0,0,0-.44.44,34.36,34.36,0,0,1-4.95,8.22C123,59.62,115.21,55.86,115.21,55.86Z"/><path class="cls-2" d="M35.24,92.67s13.3,8.27,4.91,15.57-10.56,6-18,2.76"/><path class="cls-3" d="M42.13,45.9s-19,3.63-39.72,25l0,0c-.22.25-6.25,7.3,4.42,17a180.31,180.31,0,0,0,16.53,13.61.57.57,0,0,1,.19.7,3.77,3.77,0,0,0,0,2.28.56.56,0,0,1-.36.64c-1,.38-3.22,1.75-.87,6.08a.56.56,0,0,1,.06.4c-.58,2.41-5.92,26.2-.44,66.71a.57.57,0,0,1-.17.49c-2.24,2.1-20.92,20.39,5.2,24,0,0,23.32,3.14,15.27-21.58a.56.56,0,0,1,0-.33c.67-2.38,8.82-30.43,18.15-32.11,9.56-1.72,3.24,36.1,3,37.49l0,.07c-.17.53-2.28,7.57,2,10.61,3.87,2.77,31.28,2.13,38,1.94a3.09,3.09,0,0,0,2.72-1.71,11.74,11.74,0,0,0,.41-11.28c-3.05-6.72-10.08-8.19-19.11-5.77a.57.57,0,0,1-.67-.82C91,171.29,114.92,124.17,99.36,88a.57.57,0,0,1,.8-.74c4.63,2.62,18.12,8.2,24.34-11.91,1-3.18,2.54-9.74,2.6-20.1a.58.58,0,0,0-.8-.54c-1.82.79-6.53,2.19-12.33-1.12a.57.57,0,0,0-.86.37c-.53,2.63-2.64,11-8.54,13.73a.57.57,0,0,1-.77-.35C102.72,64.07,97,48.18,86.07,46.3c-12.22-2.1-43.94-.4-43.94-.4"/><path class="cls-4" d="M22.17,111c7.42,3.24,9.59,4.55,18-2.76s-4.91-15.57-4.91-15.57S25.7,79.29,17.75,75.81c-3.71-1.62,6.28,3.1,8.6,3.37a9.12,9.12,0,0,0,7.85-2.45.33.33,0,0,1,.56.32c-1,3.83-5.3,8.47-5.3,8.47"/><path class="cls-4" d="M23.69,104.92A11.4,11.4,0,0,0,28,108.35"/><path class="cls-3" d="M43.68,15.38a.28.28,0,0,1,.24.46c-2.76,3.31-14.36,18.76-1.26,30.06,6.68,5.76,11.74,8.79,15.28,10.38a14.07,14.07,0,0,0,10.43.44C76,54,91.75,47.11,91.14,35.8c-.68-12.63-5.83-18.62-7.42-20.18a.28.28,0,0,1,.17-.48c1.88-.24,7.17-1.53,4.83-8.23C86-1,79.19,1.71,78.27,5.58a.28.28,0,0,1-.37.21C75.73,5,62.38.62,52.06,5.75a.27.27,0,0,1-.39-.16c-.49-1.7-3.18-9.3-10.22-1.9C34.22,11.28,40.43,15.65,43.68,15.38Z"/><path class="cls-1" d="M62.32,22.94a7.92,7.92,0,0,1-7.92,7.92c-4.37,0-10.35-2.48-7.92-7.92,2.68-6,7.12-8.32,11.49-8.32S62.32,18.57,62.32,22.94Z"/><path class="cls-1" d="M66.35,23.45a8.19,8.19,0,0,0,8,8.41c4.4,0,10.41-2.64,8-8.41-2.69-6.35-7.16-8.83-11.56-8.83S66.35,18.81,66.35,23.45Z"/><ellipse class="cls-5" cx="56.25" cy="24.64" rx="6.6" ry="4.88" transform="translate(16.65 71.59) rotate(-73.51)"/><ellipse class="cls-5" cx="72.77" cy="25.07" rx="4.88" ry="6.6" transform="translate(-4.12 21.69) rotate(-16.49)"/><circle class="cls-6" cx="55.36" cy="21.58" r="1.49" transform="matrix(0.28, -0.96, 0.96, 0.28, 18.96, 68.53)"/><circle class="cls-6" cx="71.36" cy="21.58" r="1.49" transform="matrix(0.28, -0.96, 0.96, 0.28, 30.41, 83.88)"/><path class="cls-5" d="M69.42,33.24c0,1.75-3.59,3.17-5.57,3.17S58.28,35,58.28,33.24s.46-3.17,5.57-3.17C69.24,30.06,69.42,31.48,69.42,33.24Z"/><path class="cls-4" d="M53.34,32.61s-2.26,6.08,2,7.75,8.9-1.31,8.93-3.1h0s1,5,8,3.59c6.19-1.24,3.8-8.14,3.8-8.14"/><path class="cls-5" d="M54.85,40.46s7.94,13,18.31.4c0,0-7.32,1.11-9.1-2.88C64.05,38,62.32,41.91,54.85,40.46Z"/></g></g></svg>