<svg xmlns="http://www.w3.org/2000/svg" viewBox="0 0 150.83 157.43"><defs><style>.cls-1,.cls-2,.cls-4{fill:#fff;}.cls-1,.cls-2,.cls-5{stroke:#90867d;}.cls-1,.cls-5{stroke-miterlimit:10;}.cls-3{fill:#90867d;}.cls-5{fill:none;stroke-linecap:round;}</style></defs><title>Asset 20</title><g id="Layer_2" data-name="Layer 2"><g id="Layer_5" data-name="Layer 5"><path class="cls-1" d="M20.09,41.32a.76.76,0,0,1,.65,1.25C13.17,51.67-18.66,94,17.27,125c18.32,15.81,32.21,24.12,41.92,28.48a38.61,38.61,0,0,0,28.63,1.22c21-7.39,64.14-26.37,62.46-57.41-1.87-34.64-16-51.09-20.35-55.37a.77.77,0,0,1,.46-1.31c5.15-.67,19.67-4.19,13.24-22.57C136.08-3.48,117.5,3.82,115,14.45a.77.77,0,0,1-1,.57C108,12.89,71.39.83,43.06,14.9A.75.75,0,0,1,42,14.44c-1.35-4.66-8.71-25.52-28-5.22C-5.89,30.08,11.15,42.07,20.09,41.32Z"/><path class="cls-2" d="M71.23,62.06A21.72,21.72,0,0,1,49.51,83.79c-12,0-28.41-6.81-21.72-21.72,7.35-16.4,19.53-22.82,31.53-22.82S71.23,50.07,71.23,62.06Z"/><path class="cls-2" d="M82.27,63.47c0,12.74,9.78,23.06,21.84,23.06S132.68,79.3,126,63.47c-7.39-17.41-19.64-24.23-31.71-24.23S82.27,50.73,82.27,63.47Z"/><ellipse class="cls-3" cx="54.57" cy="66.75" rx="18.11" ry="13.39" transform="translate(-24.92 100.12) rotate(-73.51)"/><ellipse class="cls-3" cx="99.89" cy="67.92" rx="13.39" ry="18.11" transform="translate(-15.17 31.15) rotate(-16.49)"/><circle class="cls-4" cx="52.12" cy="58.33" r="4.1" transform="translate(-18.6 91.75) rotate(-73.51)"/><circle class="cls-4" cx="96.02" cy="58.33" r="4.1" transform="translate(12.84 133.84) rotate(-73.51)"/><path class="cls-3" d="M90.69,90.32c0,4.81-9.85,8.71-15.27,8.71s-15.27-3.9-15.27-8.71,1.26-8.71,15.27-8.71C90.21,81.61,90.69,85.51,90.69,90.32Z"/><path class="cls-5" d="M46.57,88.61s-6.2,16.69,5.49,21.28,24.42-3.59,24.5-8.51h0s2.69,13.68,21.83,9.85c17-3.4,10.43-22.34,10.43-22.34"/><path class="cls-3" d="M54.07,110.31s18.65,34.61,43.48,1.32c0,0-16.2,1.88-21-8.75C76.59,102.87,69.39,113.94,54.07,110.31Z"/></g></g></svg>