<svg xmlns="http://www.w3.org/2000/svg" viewBox="0 0 141.75 165.31"><defs><style>.cls-1,.cls-3{fill:none;}.cls-1,.cls-2,.cls-3,.cls-4{stroke:#90867d;}.cls-1,.cls-2,.cls-3{stroke-miterlimit:10;}.cls-2,.cls-4{fill:#fff;}.cls-3{stroke-linecap:round;}</style></defs><title>Asset 23</title><g id="Layer_2" data-name="Layer 2"><g id="Layer_5" data-name="Layer 5"><path class="cls-1" d="M35.24,54.51s13.3,8.27,4.91,15.57-10.56,6-18,2.76"/><path class="cls-2" d="M42.13,7.74s-19,3.63-39.72,25l0,0c-.22.25-6.25,7.3,4.42,17A180.32,180.32,0,0,0,23.34,63.34a.57.57,0,0,1,.19.7,3.77,3.77,0,0,0,0,2.28.56.56,0,0,1-.36.64c-1,.38-3.22,1.75-.87,6.08a.56.56,0,0,1,.06.4c-.58,2.41-5.92,26.2-.44,66.71a.57.57,0,0,1-.17.49c-2.24,2.1-20.92,20.39,5.2,24,0,0,23.32,3.14,15.27-21.58a.56.56,0,0,1,0-.33c.67-2.38,8.82-30.43,18.15-32.11,9.56-1.72,3.24,36.1,3,37.49l0,.07c-.17.53-2.28,7.57,2,10.61,3.87,2.77,31.28,2.13,38,1.94a3.09,3.09,0,0,0,2.72-1.71,11.74,11.74,0,0,0,.41-11.28c-3.05-6.72-10.08-8.19-19.11-5.77a.57.57,0,0,1-.67-.82C91,133.14,114.92,86,99.36,49.86a.57.57,0,0,1,.8-.74c4.63,2.62,18.12,8.2,24.34-11.91,1-3.18,2.54-9.74,2.6-20.1a.58.58,0,0,0-.8-.54c-1.82.79-6.53,2.19-12.33-1.12a.58.58,0,0,0-.86.37c-.53,2.63-2.64,11-8.54,13.73a.57.57,0,0,1-.77-.35C102.72,25.91,97,10,86.07,8.14c-12.22-2.1-43.94-.4-43.94-.4"/><path class="cls-3" d="M22.17,72.84c7.42,3.24,9.59,4.55,18-2.76s-4.91-15.57-4.91-15.57S25.7,41.13,17.75,37.65C14,36,24,40.76,26.35,41a9.12,9.12,0,0,0,7.85-2.45.33.33,0,0,1,.56.32c-1,3.83-5.3,8.47-5.3,8.47"/><path class="cls-3" d="M23.69,66.76A11.4,11.4,0,0,0,28,70.2"/><path class="cls-2" d="M39.07,1.89C41.27,17.06,54.4,16.53,57.94,18.12a14.07,14.07,0,0,0,10.43.44C76,15.87,91,11.84,91.14.51Z"/><path class="cls-4" d="M112.62,1.67c.11,1.63.13,3,.14,3.71a.36.36,0,0,1-.52.32,10.42,10.42,0,0,0-5.74-1.38c-3.71.18-5.71,5.7.83,6.49,5,.59,7.88,6.89,7.88,6.89s7.78,3.76,11.42-1.06a34.36,34.36,0,0,0,4.95-8.22A.65.65,0,0,1,132,8,20.47,20.47,0,0,0,140,4.17a3.31,3.31,0,0,0,1.27-2.5Z"/></g></g></svg>