<svg xmlns="http://www.w3.org/2000/svg" viewBox="0 0 141.75 165.31"><defs><style>.cls-1,.cls-3{fill:none;}.cls-1,.cls-2,.cls-3,.cls-4{stroke:#90867d;}.cls-1,.cls-2,.cls-3{stroke-miterlimit:10;}.cls-2,.cls-4{fill:#fff;}.cls-3{stroke-linecap:round;}</style></defs><title>Asset 24</title><g id="Layer_2" data-name="Layer 2"><g id="Layer_5" data-name="Layer 5"><path class="cls-1" d="M35.24,54.51s13.3,8.27,4.91,15.57-10.56,6-18,2.76"/><path class="cls-2" d="M42.13,7.74s-19,3.63-39.72,25l0,0c-.22.25-6.25,7.3,4.42,17A180.32,180.32,0,0,0,23.34,63.34a.57.57,0,0,1,.19.7,3.77,3.77,0,0,0,0,2.28.56.56,0,0,1-.36.64c-1,.38-3.22,1.75-.87,6.08a.56.56,0,0,1,.06.4c-.58,2.41-5.92,26.2-.44,66.71a.57.57,0,0,1-.17.49c-2.24,2.1-20.92,20.39,5.2,24,0,0,23.32,3.14,15.27-21.58a.55.55,0,0,1,0-.33c.67-2.38,8.82-30.43,18.15-32.11,9.56-1.72,3.24,36.1,3,37.49l0,.07c-.17.53-2.28,7.57,2,10.61,3.87,2.77,31.28,2.13,38,1.94a3.09,3.09,0,0,0,2.72-1.71,11.74,11.74,0,0,0,.41-11.28c-3.05-6.72-10.08-8.19-19.11-5.77a.57.57,0,0,1-.67-.82C91,133.14,114.92,86,99.36,49.86a.57.57,0,0,1,.8-.74c4.63,2.62,18.12,8.2,24.34-11.91,1-3.18,2.54-9.74,2.6-20.1a.58.58,0,0,0-.8-.54c-1.82.79-6.53,2.19-12.33-1.12a.58.58,0,0,0-.86.37c-.53,2.63-2.64,11-8.54,13.73a.57.57,0,0,1-.77-.35C102.72,25.91,97,10,86.07,8.14c-12.22-2.1-43.94-.4-43.94-.4"/><path class="cls-3" d="M29.46,47.36s4.31-4.64,5.3-8.47a.33.33,0,0,0-.56-.32A9.12,9.12,0,0,1,26.35,41C24,40.76,14,36,17.75,37.65c8,3.48,17.49,16.86,17.49,16.86s13.3,8.27,4.91,15.57-10.56,6-18,2.76"/><path class="cls-3" d="M23.69,66.76A11.4,11.4,0,0,0,28,70.2"/><path class="cls-2" d="M39.07,1.89C41.27,17.06,54.4,16.53,57.94,18.12a14.07,14.07,0,0,0,10.43.44C76,15.87,91,11.84,91.14.51Z"/><path class="cls-3" d="M40.15,70.09s31.38,12,62.91-7.44"/><path class="cls-3" d="M100.16,49.12s-.84-11.33,3.64-19.91"/><path class="cls-3" d="M49.91,15.91s13.47,17.08,26,0"/><path class="cls-3" d="M16.93,20.12S19.09,35.36,26.35,41"/><path class="cls-3" d="M19.6,113.95s7.84,9,30.28,8.52"/><path class="cls-3" d="M65.56,122.48s11.28,4.78,30.39-2.25"/><path class="cls-3" d="M19.6,18.27s2.51,15.68,10.33,22.61"/><path class="cls-3" d="M101.95,25.66s-7.21,6.67-2.59,24.19"/><path class="cls-3" d="M37.18,72.51s23.74,15.73,66.62-5.08"/><path class="cls-4" d="M112.62,1.67c.11,1.63.13,3,.14,3.71a.36.36,0,0,1-.52.32,10.42,10.42,0,0,0-5.74-1.38c-3.71.18-5.71,5.7.83,6.49,5,.59,7.88,6.89,7.88,6.89s7.78,3.76,11.42-1.06a34.36,34.36,0,0,0,4.95-8.22A.65.65,0,0,1,132,8,20.47,20.47,0,0,0,140,4.17a3.31,3.31,0,0,0,1.27-2.5Z"/><path class="cls-2" d="M62.66,152.32s6.22,4.43,44.77,2.79"/><path class="cls-2" d="M13.26,153.9s8.23,8.61,29,5.1"/><path class="cls-2" d="M64.53,139.68s9.07,4.54,22.74,2.34"/><path class="cls-2" d="M42.18,142.78c-11.29-10.71-20.29-2.62-20.29-2.62S12.91,154,28,155.47,42.18,142.78,42.18,142.78Z"/><path class="cls-2" d="M71.6,141.84s6.84,9.78,21.19,8.92l14.35-.86"/></g></g></svg>