<svg xmlns="http://www.w3.org/2000/svg" viewBox="0 0 169.76 168.45"><defs><style>.cls-1,.cls-2,.cls-4{fill:#fff;}.cls-1,.cls-2,.cls-5{stroke:#90867d;}.cls-1,.cls-5{stroke-linecap:round;stroke-miterlimit:10;}.cls-3{fill:#90867d;}.cls-5{fill:none;}</style></defs><title>Asset 21</title><g id="Layer_2" data-name="Layer 2"><g id="Layer_9" data-name="Layer 9"><path class="cls-1" d="M156.68,96.25c6.63,39-3.72,71.7-71.7,71.7-62.29,0-78.31-32.66-71.7-71.7,7.05-41.65,32.1-71.7,71.7-71.7S149.28,52.72,156.68,96.25Z"/><path class="cls-2" d="M79.72,84.87a23.06,23.06,0,0,1-23.06,23.06c-12.74,0-30.16-7.23-23.06-23.06,7.8-17.41,20.74-24.23,33.47-24.23S79.72,72.14,79.72,84.87Z"/><path class="cls-2" d="M90.77,84.87c0,12.74,9.78,23.06,21.84,23.06s28.56-7.23,21.84-23.06c-7.39-17.41-19.64-24.23-31.71-24.23S90.77,72.14,90.77,84.87Z"/><ellipse class="cls-3" cx="63.06" cy="89.15" rx="18.11" ry="13.39" transform="translate(-40.32 124.31) rotate(-73.51)"/><ellipse class="cls-3" cx="108.39" cy="89.32" rx="13.39" ry="18.11" transform="translate(-20.9 34.44) rotate(-16.49)"/><circle class="cls-4" cx="60.61" cy="79.73" r="4.1" transform="matrix(0.28, -0.96, 0.96, 0.28, -33.04, 115.22)"/><circle class="cls-4" cx="104.51" cy="79.73" r="4.1" transform="translate(-1.6 157.31) rotate(-73.51)"/><path class="cls-5" d="M77.38,109.68A11.79,11.79,0,0,0,85,113c5.79,0,8.27-3.28,8.27-3.28"/><path class="cls-3" d="M28.38,113S57,126.39,85,126.46c27.72.07,57.26-13.5,57.26-13.5S122.37,143.38,85,143.38C46.58,143.39,28.38,113,28.38,113Z"/><path class="cls-1" d="M18.07,77.13s-1.08-7.48-7.6-8.07S1.52,72.88.68,77.13,1.52,101,13.28,96.25c.41-1.63,1-5.71,2-9.72C16.44,81.77,18.07,77.13,18.07,77.13Z"/><path class="cls-1" d="M151.89,77.07s.79-7.36,7.3-8,9,3.74,9.86,8-.62,23.86-12.42,19.24c-.42-1.63-1-5.7-2.06-9.7C153.33,81.84,151.89,77.07,151.89,77.07Z"/><path class="cls-1" d="M13.5,50.5S6.07,51.92,4,57.39c0,0,4.56-3,6.39-1.83,0,0-7.26,7.86-6.94,15.68A7.86,7.86,0,0,1,11.9,69a9.19,9.19,0,0,1,6.17,8.13l7.29-16.48L13.5,50.5"/><path class="cls-1" d="M158.94,63.57a6.3,6.3,0,0,1,6.62,1.74s-3-.47-4.22,1.21a7.54,7.54,0,0,1,4.22,3.55s-10.22-5.47-13.48,6.17l-3.83-8.75,10.69-3.91"/><path class="cls-1" d="M25.35,60.64s59.2-16.56,120.42,2.83c0,0-30.5-53.48-100.55-44a133.38,133.38,0,0,0-16.84,3.26C-15.75,34.69,25.35,60.64,25.35,60.64Z"/><path class="cls-1" d="M28.38,22.73s4-14.45,22.43-20.21c23.39-7.31,80.06,6.43,95,22,12.62,13.21,13.17,39,13.17,39l-10.69,3.91S109.95,2.13,28.38,22.73Z"/></g></g></svg>