<svg xmlns="http://www.w3.org/2000/svg" viewBox="0 0 156.35 158.83"><defs><style>.cls-1,.cls-2,.cls-4{fill:#fff;}.cls-1,.cls-2,.cls-5{stroke:#90867d;}.cls-1,.cls-5{stroke-linecap:round;stroke-miterlimit:10;}.cls-3{fill:#90867d;}.cls-5{fill:none;}</style></defs><title>Asset 22</title><g id="Layer_2" data-name="Layer 2"><g id="Layer_8" data-name="Layer 8"><path class="cls-1" d="M151.51,86.63A104.12,104.12,0,0,1,153.13,109c-.2,4.11,4.19,8.06,2.21,21.26C155,132.81,150,125.73,149,128a40.65,40.65,0,0,1-5.77,9.56c-1.57,1.94-3.74,9.73-8.34,13.29-1.84,1.42-.75-4.91-2.89-3.6-11.42,7-28.23,11-52.21,11-18.23,0-32.5-2.8-43.4-7.74-2.55-1.15-.3,5.37-2.49,4-1.85-1.17-8.17-10.2-9.77-11.52a45.2,45.2,0,0,1-9.89-11.31c-1.43-2.34-2.64,3.49-3.87,1-3.89-7.78-1.91-14.69-2.54-18a68.93,68.93,0,0,1-1.11-14c0-1.12-4.83,5.41-4.83,4.28,0-7.26,5.58-14.73,6.2-18.37.57-3.35-8.36,2.76-7.55-.43C3.85,73.12,12.1,69.74,13.28,66.38c9.36-26.53,27.6-45.53,53.46-50.29,1.76-.32,8.77-6.36,15.09-8a.51.51,0,0,1,.5.85c-2.48,2.53-4.6,6-2.52,6q2.41,0,4.75.14c.68,0,3.9-3.09,7-3.67a.23.23,0,0,1,.21.39c-1.22,1.18-3.81,3.55-3.33,3.6,21.44,2.36,37.91,13.68,49,31.54,1.31,2.11,11,5.36,12.93,15.76.43,2.26-7.23-5-6.31-2.79,1.36,3.25,8.53,8.69,10.25,17.08,1,4.82-5.28-2.31-4.7.06Q150.67,81.7,151.51,86.63Z"/><path class="cls-2" d="M74.55,75.25A23.06,23.06,0,0,1,51.49,98.31c-12.74,0-30.16-7.23-23.06-23.06C36.23,57.84,49.16,51,61.9,51S74.55,62.52,74.55,75.25Z"/><path class="cls-2" d="M85.59,75.25c0,12.74,9.78,23.06,21.84,23.06S136,91.08,129.28,75.25C121.89,57.84,109.64,51,97.57,51S85.59,62.52,85.59,75.25Z"/><ellipse class="cls-3" cx="57.89" cy="79.53" rx="18.11" ry="13.39" transform="translate(-34.8 112.46) rotate(-73.51)"/><ellipse class="cls-3" cx="103.21" cy="79.7" rx="13.39" ry="18.11" transform="translate(-18.38 32.58) rotate(-16.49)"/><circle class="cls-4" cx="55.44" cy="70.11" r="4.1" transform="translate(-27.52 103.37) rotate(-73.51)"/><circle class="cls-4" cx="99.34" cy="70.11" r="4.1" transform="translate(3.92 145.46) rotate(-73.51)"/><path class="cls-5" d="M72.21,100.06a11.79,11.79,0,0,0,7.59,3.28c5.79,0,8.27-3.28,8.27-3.28"/><path class="cls-3" d="M23.21,103.34s28.63,13.43,56.6,13.5c27.72.07,57.26-13.5,57.26-13.5s-19.87,30.41-57.26,30.42C41.41,133.77,23.21,103.34,23.21,103.34Z"/><path class="cls-4" d="M47.46,113s-3.83,2.24-1.33,9.41c0,0,4.87-7.19,7.85-7.64C54,114.75,48.08,113,47.46,113Z"/><path class="cls-4" d="M108,114.12s3.83,2.24,1.33,9.41c0,0-4.87-7.19-7.85-7.64"/><path class="cls-1" d="M49.46,21.89s-10-1-16.33-8.81c-3.7-4.58-4.2-8.77-4-11.44A1,1,0,0,0,27.39.8c-4.07,4-11.54,13-8,22.65,4.81,13,10,14.31,10,14.31S38.19,26.7,49.46,21.89Z"/><path class="cls-1" d="M114.12,23.48a22.79,22.79,0,0,0,14.56-8.81,17.42,17.42,0,0,0,3.58-10.89,1.17,1.17,0,0,1,2-.82c3.7,4.24,9.63,12.88,6.59,22.08C136.6,38,132,39.35,132,39.35S124.17,28.29,114.12,23.48Z"/></g></g></svg>