<svg xmlns="http://www.w3.org/2000/svg" viewBox="0 0 185.53 205.29"><defs><style>.cls-1,.cls-3,.cls-4{fill:#fff;}.cls-1,.cls-3,.cls-5{stroke:#90867d;}.cls-1,.cls-5{stroke-miterlimit:10;}.cls-2{fill:#90867d;}.cls-5{fill:none;}</style></defs><title>Asset 26</title><g id="Layer_2" data-name="Layer 2"><g id="Layer_3" data-name="Layer 3"><path class="cls-1" d="M75.6,143.2s3.41,30.09,3,33.38c-.34,2.53-1.49,1.36-7.37-.71-7.71-2.72-13.08-1.56-16.43,4.07-3.52,5.93.66,12.56,3.18,15.72a6.12,6.12,0,0,0,3.89,2.23c5.09.76,17.66,2.22,25.24-.36,9.67-3.3,9.29-5.94,9.29-5.94l1.33-16.49s.49-10.5-1.33-18.22Z"/><path class="cls-1" d="M115.82,138.83s3.18,25.65,3.93,34.11c1.25,11.83,4.39,11.85,4.39,20.44,0,5.62-1,11.91-19.14,11.38-8.74-.25-15.88-2.94-15.83-12.58,0-7.43,8-10.22,10.69-10.5,1-.1,2.17-.62,2.08-1.55-.52-5.84-1.13-18.1-2.6-23.23Z"/><path class="cls-1" d="M169.91,24.27a4.72,4.72,0,0,0-1.71-5.93c-3-2-8.41-4.11-14.89-7.83-.75-.43.3,3.8-3.51,4.87-4.26,1.2-5.13-2.7-5.6-2.47-.3.15-.36,4.11-3.46,5-4.7,1.4-5.28-3-6.57-2.5-.68.25.59,3.07-3.56,4.26-3.92,1.12-5.16-3-5.41-2.64-.6.77-3.23,3.3-5.66,2.2-2-.92-2-4.08-1.5-5.23.29-.68-4.08.47-4.92-1.52C112,9.92,114.49,8,114.43,7.62s-3.12-.15-3.94-2c-1.22-2.74,1.78-4.59.77-4.73C106.31.21,101,.56,95.45.84,57.9,2.75,34,12.73,25,17.16a4.72,4.72,0,0,0-2.22,6.11S40.48,64.4,49.36,86.87c.42,1.07-4.59,11.59.77,11.25,2.82-.18,2.42-2.93,2.86-1.75,1.47,3.93,1.4,4,1.35,4.62-.42,5.68-5.45,19,2.48,19.17,2.85.06,4.17-4.3,4-8.06a.31.31,0,0,1,.6-.14l29.09,66.89a4.73,4.73,0,0,0,8.63.08Z"/><path class="cls-2" d="M70.31,47.59C73.8,49.71,88,56.69,111,47a.2.2,0,0,1,.22.33c-4.44,4.09-26.12,22.22-41.15.59A.21.21,0,0,1,70.31,47.59Z"/><path class="cls-3" d="M88.11,37.61a7.92,7.92,0,0,1-7.92,7.92c-4.37,0-10.35-2.48-7.92-7.92,2.68-6,7.12-8.32,11.49-8.32S88.11,33.23,88.11,37.61Z"/><path class="cls-3" d="M92.14,38.12a8.19,8.19,0,0,0,8,8.41c4.4,0,10.41-2.64,8-8.41-2.69-6.35-7.16-8.83-11.56-8.83S92.14,33.48,92.14,38.12Z"/><ellipse class="cls-2" cx="82.04" cy="39.31" rx="6.6" ry="4.88" transform="translate(21.05 106.82) rotate(-73.51)"/><ellipse class="cls-2" cx="98.56" cy="39.74" rx="4.88" ry="6.6" transform="translate(-7.23 29.61) rotate(-16.49)"/><circle class="cls-4" cx="81.15" cy="36.24" r="1.49" transform="translate(23.36 103.76) rotate(-73.51)"/><circle class="cls-4" cx="97.15" cy="36.24" r="1.49" transform="translate(34.82 119.11) rotate(-73.51)"/><path class="cls-1" d="M62.07,44.69c.44,2-4.51,4.09-4.08,5,3,6.66,7.13,6.27,1,10.72s-5.13,2.23-10.51-2.63c-.81-.73-4.72,3.25-6.78,1.54C35,53.82,40.47,46.78,45.3,43.29S60.22,36.21,62.07,44.69Z"/><path class="cls-3" d="M34.37,47s-1.34-6.77,2-10.83c4.34-5.36-1.19-8-4.11-5.48a10.91,10.91,0,0,0-3.3,5.22.38.38,0,0,1-.63.14c-1.59-1.66-7.22-7.75-8.49-12.23-1.76-6.17-7.52-2.91-6.35,2.26a24.77,24.77,0,0,0,3.23,7.77.41.41,0,0,1-.42.63,31.48,31.48,0,0,1-9.9-3.38c-5.87-3.28-7.26,4-4.46,6.76,2.25,2.2,8.27,3.75,11.38,4.68a.6.6,0,0,1,.16,1.08C11.44,45,9,47.26,5.95,47.88c-4.78,1-3.27,7.53,1,7.14a21.43,21.43,0,0,0,8.75-2.93.68.68,0,0,1,.65,0,38.58,38.58,0,0,0,10.57,3.13C33.18,56.19,34.37,47,34.37,47Z"/><path class="cls-3" d="M56.22,55.81S40.83,55.64,34.37,47c0,0-1.75,8-5.77,8.27,0,0,6.46,11.73,27.62,12.33a20.29,20.29,0,0,0,1.31-6.28A13.8,13.8,0,0,0,56.22,55.81Z"/><circle class="cls-1" cx="127.43" cy="67.26" r="14.07"/><path class="cls-3" d="M121.91,56.71a11.18,11.18,0,0,0,1.24,13.17s27-1.55,33.3-12.08c0,0-3.25-2-6.35-7.59C150.1,50.2,141.89,58.41,121.91,56.71Z"/><path class="cls-3" d="M150.1,50.2s2.4-6.86-.89-10.93c-4.34-5.36,1.19-8.05,4.11-5.48a10.91,10.91,0,0,1,3.3,5.22.38.38,0,0,0,.63.14c1.59-1.66,7.22-7.75,8.49-12.23,1.76-6.17,7.52-2.91,6.35,2.26A24.77,24.77,0,0,1,168.86,37a.41.41,0,0,0,.42.63,31.48,31.48,0,0,0,9.9-3.38c5.87-3.28,7.26,4,4.46,6.76-2.25,2.2-8.27,3.75-11.38,4.68a.6.6,0,0,0-.17,1.08c2,1.34,4.41,3.59,7.49,4.22,4.78,1,3.27,7.53-1,7.14a21.43,21.43,0,0,1-8.75-2.93.68.68,0,0,0-.65,0c-1,.58-4.52,1.77-9.72,2.56C153.2,58.7,150.1,50.2,150.1,50.2Z"/><path class="cls-5" d="M153.31,33.8s-30.9-13.18-62.68-11.34S36.32,36.2,36.32,36.2"/><circle class="cls-1" cx="75.29" cy="83.95" r="14.07"/><path class="cls-1" d="M54,188.22a39.06,39.06,0,0,0,18.4,4.33c11.07,0,16.76-.38,16.76-.38"/><path class="cls-1" d="M89.22,193.55s8.13,5.2,17.44,5.08a35.75,35.75,0,0,0,17.49-5.26"/><circle class="cls-1" cx="92.14" cy="121.85" r="14.07"/><path class="cls-1" d="M120.6,99c-1.45.91-4.43-2.37-5-1.77-4.33,4.18-2.89,7.28-8,3.74s-3.15-3.36-.88-8.89c.34-.83-3.84-2.76-3.08-4.84C106,80.51,113,82.81,117,85.59S126.67,95.2,120.6,99Z"/><path class="cls-1" d="M104.53,149.5c.11,1.71-4.18,2.79-3.94,3.61,1.64,5.8,5.06,6-.5,8.86s-4.45,1.2-8.26-3.41c-.57-.69-4.24,2.08-5.72.43-4.77-5.33.55-10.4,4.91-12.66S104,142.36,104.53,149.5Z"/><path class="cls-1" d="M61.22,174.82s5.94,4.56,4.86,17.26a10.3,10.3,0,0,0,2,6.56"/><path class="cls-1" d="M89.81,193.48s4.12-7,16.87-7.09c13.17-.13,16.75,6.86,16.75,6.86"/><path class="cls-5" d="M66.2,188.12s12.51.92,17.27-2.78a4.69,4.69,0,0,0,1.5-1.89c2.43-5.88-2-9.21-6.37-8.63"/><line class="cls-5" x1="91.67" y1="185.86" x2="83.46" y2="185.33"/><path class="cls-1" d="M97.78,187.81s-1-6,5.95-10.3c4.81-3,13.14-.59,15.57,4.19a12.14,12.14,0,0,1,.77,8.13S111.7,183.6,97.78,187.81Z"/><line class="cls-5" x1="120.81" y1="179.29" x2="119.3" y2="181.7"/><path class="cls-1" d="M59.34,190.52s2.21,7.37,4.38,7.63"/><line class="cls-1" x1="72.41" y1="192.55" x2="72.82" y2="198.94"/><path class="cls-1" d="M78.55,192.51s.33,4.86-.23,6.43"/><path class="cls-1" d="M83.46,192.51s.87,4.05,0,6.12"/><path class="cls-1" d="M95,196.42s.27,4.94,2.86,7.39"/><path class="cls-1" d="M101.44,198.3s.21,4.68,1.58,6.35"/><path class="cls-1" d="M110.11,198.64a25.75,25.75,0,0,1-.32,6"/><path class="cls-1" d="M115.52,197.22s.4,4.67-.79,7"/><path class="cls-1" d="M120.05,195.54a11.28,11.28,0,0,1-.34,7"/><path class="cls-1" d="M70,30.46s6.36-6.3,14.2-6.3C84.21,24.15,74.41,17.7,70,30.46Z"/><path class="cls-1" d="M93.29,24.15s9.78-6.46,14.18,6.3c0,0-6.35-6.3-14.18-6.3"/></g></g></svg>