<svg xmlns="http://www.w3.org/2000/svg" viewBox="0 0 185.53 205.13"><defs><style>.cls-1,.cls-3,.cls-4{fill:#fff;}.cls-1,.cls-3,.cls-5{stroke:#90867d;}.cls-1,.cls-5{stroke-miterlimit:10;}.cls-2{fill:#90867d;}.cls-5{fill:none;}</style></defs><title>Asset 25</title><g id="Layer_2" data-name="Layer 2"><g id="Layer_3" data-name="Layer 3"><path class="cls-1" d="M75.6,143s3.41,30.09,3,33.38c-.34,2.53-1.49,1.36-7.37-.71-7.71-2.72-13.08-1.56-16.43,4.07-3.52,5.93.66,12.56,3.18,15.72a6.12,6.12,0,0,0,3.89,2.23c5.09.76,17.66,2.22,25.24-.36,9.67-3.3,9.29-5.94,9.29-5.94L97.72,175s.49-10.5-1.33-18.22Z"/><path class="cls-1" d="M115.82,138.67s3.18,25.65,3.93,34.11c1.25,11.83,4.39,11.85,4.39,20.44,0,5.62-1,11.91-19.14,11.38-8.74-.25-15.88-2.94-15.83-12.58,0-7.43,8-10.22,10.69-10.5,1-.1,2.17-.62,2.08-1.55-.52-5.84-1.13-18.1-2.6-23.23Z"/><path class="cls-1" d="M170,24.12a4.72,4.72,0,0,0-1.71-5.93c-8.69-5.68-34-19.47-72.75-17.51C58,2.6,34,12.58,25.1,17a4.72,4.72,0,0,0-2.22,6.11s17.66,41.13,26.54,63.6c.42,1.07-4.59,11.59.78,11.25,2.82-.18,2.42-2.93,2.86-1.75,1.47,3.93,1.4,4,1.35,4.62-.42,5.68-5.45,19,2.48,19.17,2.85.06,4.17-4.3,4-8.06a.31.31,0,0,1,.6-.14L90.56,178.7a4.73,4.73,0,0,0,8.63.08l22.08-48.24s.62,6.33,4.65,5.06c4.48-1.41.91-13.68,1.85-18.26S170,24.12,170,24.12Z"/><path class="cls-2" d="M70.31,47.43C73.8,49.55,88,56.53,111,46.82a.2.2,0,0,1,.22.33c-4.44,4.09-26.12,22.22-41.15.59A.21.21,0,0,1,70.31,47.43Z"/><path class="cls-3" d="M88.11,37.45a7.92,7.92,0,0,1-7.92,7.92c-4.37,0-10.35-2.48-7.92-7.92,2.68-6,7.12-8.32,11.49-8.32S88.11,33.08,88.11,37.45Z"/><path class="cls-3" d="M92.14,38a8.19,8.19,0,0,0,8,8.41c4.4,0,10.41-2.64,8-8.41-2.69-6.35-7.16-8.83-11.56-8.83S92.14,33.32,92.14,38Z"/><ellipse class="cls-2" cx="82.04" cy="39.16" rx="6.6" ry="4.88" transform="translate(21.2 106.71) rotate(-73.51)"/><ellipse class="cls-2" cx="98.56" cy="39.59" rx="4.88" ry="6.6" transform="translate(-7.18 29.61) rotate(-16.49)"/><circle class="cls-4" cx="81.15" cy="36.09" r="1.49" transform="translate(23.51 103.65) rotate(-73.51)"/><circle class="cls-4" cx="97.15" cy="36.09" r="1.49" transform="translate(34.97 119) rotate(-73.51)"/><path class="cls-3" d="M34.37,46.88S33,40.11,36.32,36c4.34-5.36-1.19-8.05-4.11-5.48a10.91,10.91,0,0,0-3.3,5.22.38.38,0,0,1-.63.14c-1.59-1.66-7.22-7.75-8.49-12.23C18,17.53,12.28,20.79,13.44,26a24.77,24.77,0,0,0,3.23,7.77.41.41,0,0,1-.42.63A31.48,31.48,0,0,1,6.35,31C.49,27.7-.91,35,1.89,37.75c2.25,2.2,8.27,3.75,11.38,4.68a.6.6,0,0,1,.16,1.08c-2,1.34-4.41,3.59-7.49,4.22-4.78,1-3.27,7.53,1,7.14a21.43,21.43,0,0,0,8.75-2.93.68.68,0,0,1,.65,0,38.58,38.58,0,0,0,10.57,3.13C33.18,56,34.37,46.88,34.37,46.88Z"/><circle class="cls-1" cx="128.75" cy="65.24" r="14.07"/><path class="cls-3" d="M56.22,55.65s-15.39-.16-21.85-8.77c0,0-1.75,8-5.77,8.27,0,0,6.46,11.73,27.62,12.33a20.29,20.29,0,0,0,1.31-6.28A13.8,13.8,0,0,0,56.22,55.65Z"/><path class="cls-3" d="M121.91,56.56a11.18,11.18,0,0,0,1.24,13.17s27-1.55,33.3-12.08c0,0-3.25-2-6.35-7.59C150.1,50.05,141.89,58.26,121.91,56.56Z"/><path class="cls-3" d="M150.1,50.05s2.4-6.86-.89-10.93c-4.34-5.36,1.19-8.05,4.11-5.48a10.91,10.91,0,0,1,3.3,5.22.38.38,0,0,0,.63.14c1.59-1.66,7.22-7.75,8.49-12.23,1.76-6.17,7.52-2.91,6.35,2.26a24.77,24.77,0,0,1-3.23,7.77.41.41,0,0,0,.42.63,31.48,31.48,0,0,0,9.9-3.38c5.87-3.28,7.26,4,4.46,6.76-2.25,2.2-8.27,3.75-11.38,4.68a.6.6,0,0,0-.16,1.08c2,1.34,4.41,3.59,7.49,4.22,4.78,1,3.27,7.53-1,7.14A21.43,21.43,0,0,1,169.81,55a.68.68,0,0,0-.65,0c-1,.58-4.52,1.77-9.72,2.56C153.2,58.55,150.1,50.05,150.1,50.05Z"/><path class="cls-5" d="M153.31,33.64s-30.9-13.18-62.68-11.34S36.32,36,36.32,36"/><circle class="cls-1" cx="73.75" cy="84.32" r="14.07"/><circle class="cls-1" cx="92.9" cy="123.32" r="14.07"/></g></g></svg>